<?xml version="1.0" encoding="UTF-8" standalone="no"?>
<!-- Generator: Adobe Illustrator 24.3.0, SVG Export Plug-In . SVG Version: 6.00 Build 0)  -->

<svg
   version="1.1"
   id="Layer_1"
   x="0px"
   y="0px"
   viewBox="0 0 210.35 242.89"
   xml:space="preserve"
   width="210.35001"
   height="242.89"
   xmlns:xlink="http://www.w3.org/1999/xlink"
   xmlns="http://www.w3.org/2000/svg"
   xmlns:svg="http://www.w3.org/2000/svg"><defs
   id="defs1197" />
<style
   type="text/css"
   id="style1152">
	.st0{clip-path:url(#SVGID_2_);}
	.st1{fill:#010101;}
	.st2{fill:#FFFFFF;}
	.st3{fill:#F5F5F5;}
	.st4{fill:#E0E1E1;}
	.st5{fill:#E9EBEB;}
	.st6{fill:#E9EAEA;}
	.st7{fill:#E8E9EA;}
	.st8{fill:#E8E9E9;}
	.st9{fill:#4B4C4C;}
	.st10{fill:#1A1A1B;}
	.st11{fill:#191919;}
</style>
<g
   id="g1192"
   transform="translate(-143.16,-128.35)">
	<defs
   id="defs1155">
		<polygon
   id="SVGID_1_"
   points="248.33,128.35 143.16,189.08 143.16,310.52 248.33,371.24 353.51,310.52 353.51,189.08 " />
	</defs>
	<clipPath
   id="SVGID_2_">
		<use
   xlink:href="#SVGID_1_"
   style="overflow:visible"
   id="use1157"
   x="0"
   y="0"
   width="100%"
   height="100%" />
	</clipPath>
	<g
   class="st0"
   clip-path="url(#SVGID_2_)"
   id="g1190">
		<g
   id="g1188">
			<path
   class="st1"
   d="m 372.37,125.51 c 0,82.52 0,165.05 0.03,247.57 0,1.13 -0.25,1.38 -1.38,1.38 -82.14,-0.03 -164.28,-0.03 -246.41,-0.03 -0.28,-0.52 -0.14,-1.09 -0.14,-1.63 -0.01,-81.87 -0.01,-163.73 0,-245.6 0,-2.07 -0.22,-1.85 1.85,-1.85 81.48,0 162.96,0 244.44,0 0.52,0.02 1.09,-0.12 1.61,0.16 z"
   id="path1160" />
			<path
   class="st2"
   d="m 372.37,125.51 c -81.99,0 -163.97,0 -245.96,-0.04 -1.51,0 -1.85,0.34 -1.85,1.85 0.04,82.37 0.04,164.75 0.04,247.12 -0.09,-0.07 -0.31,0.15 -0.3,-0.15 0.01,-0.4 0,-0.8 0,-1.21 0,-82.17 0,-164.35 -0.03,-246.52 0,-1.13 0.25,-1.38 1.38,-1.38 81.79,0.03 163.57,0.03 245.36,0.05 0.44,0 1.02,-0.35 1.36,0.28 z"
   id="path1162" />
			<path
   class="st3"
   d="m 174.9,241.35 c 0,-1.15 0,-2.05 0,-2.94 0,-17.22 0.01,-34.45 -0.02,-51.67 0,-0.99 0.22,-1.61 1.14,-2.14 15.57,-8.93 31.13,-17.89 46.66,-26.88 0.89,-0.51 1.5,-0.56 2.41,-0.02 7.25,4.24 14.53,8.43 21.83,12.58 0.99,0.56 1.23,1.19 1.23,2.25 -0.04,13.21 -0.02,26.41 -0.02,39.62 0,0.4 -0.01,0.8 0,1.21 0.01,0.36 0.04,0.76 0.54,0.71 0.37,-0.04 0.4,-0.39 0.4,-0.7 0,-0.35 0,-0.7 0,-1.05 0,-13.31 0.01,-26.62 -0.02,-39.92 0,-1.01 0.26,-1.58 1.19,-2.1 7.35,-4.17 14.66,-8.39 21.96,-12.66 0.82,-0.48 1.37,-0.44 2.15,0.01 15.66,9.06 31.34,18.11 47.03,27.14 0.61,0.35 0.96,0.67 0.96,1.46 -0.03,18.28 -0.02,36.56 -0.02,54.85 -0.54,0.22 -0.85,-0.21 -1.19,-0.41 -7.15,-4.11 -14.29,-8.26 -21.45,-12.35 -0.84,-0.48 -1.16,-0.99 -1.15,-1.98 0.05,-8.64 0.01,-17.28 0.05,-25.91 0.01,-1.04 -0.32,-1.57 -1.23,-2.09 -7.69,-4.38 -15.34,-8.82 -23.01,-13.24 -1.39,-0.8 -1.44,-0.77 -1.44,0.83 0,13.46 -0.01,26.92 0.02,40.38 0,0.94 -0.19,1.52 -1.08,2.03 -7.43,4.23 -14.83,8.52 -22.21,12.82 -0.75,0.44 -1.3,0.42 -2.04,-0.01 -7.39,-4.3 -14.79,-8.58 -22.22,-12.81 -0.83,-0.47 -1.05,-0.99 -1.05,-1.89 0.03,-13.36 0.02,-26.72 0.02,-40.07 0,-2.13 0,-2.13 -1.9,-1.04 -7.58,4.37 -15.14,8.77 -22.74,13.1 -0.87,0.49 -1.14,1.02 -1.13,2 0.04,8.64 0.02,17.27 0.02,25.91 0,0.69 0.08,1.32 -0.73,1.78 -7.59,4.29 -15.15,8.68 -22.96,13.2 z"
   id="path1164" />
			<path
   class="st4"
   d="m 247.55,242.28 c -7.68,4.43 -15.31,8.82 -22.91,13.26 -0.69,0.4 -1.14,0.24 -1.73,-0.1 -3.5,-2.04 -7.03,-4.03 -10.52,-6.09 -0.69,-0.41 -1.18,-0.42 -1.88,-0.01 -3.66,2.16 -7.35,4.28 -11.05,6.38 -1.02,0.58 -1.13,0.91 -0.01,1.55 16.12,9.29 32.23,18.6 48.32,27.94 0.86,0.5 1.39,0.11 2.03,-0.26 13.51,-7.8 27.03,-15.61 40.54,-23.41 2.43,-1.4 4.85,-2.8 7.27,-4.21 1.27,-0.74 1.28,-0.92 0.07,-1.62 -3.72,-2.16 -7.46,-4.29 -11.17,-6.46 -0.6,-0.35 -1.03,-0.27 -1.59,0.05 -3.59,2.09 -7.2,4.15 -10.79,6.22 -0.43,0.25 -0.76,0.49 -1.33,0.17 -7.69,-4.47 -15.39,-8.91 -23.26,-13.46 3.51,-2.03 6.88,-3.97 10.25,-5.92 8.27,-4.78 16.55,-9.55 24.81,-14.36 0.83,-0.48 1.42,-0.52 2.28,-0.02 11.46,6.66 22.94,13.29 34.44,19.89 0.75,0.43 1.04,0.88 1.03,1.75 -0.03,8.59 -0.03,17.18 0,25.76 0,0.85 -0.24,1.32 -1,1.77 -23.93,13.78 -47.84,27.59 -71.74,41.42 -0.76,0.44 -1.28,0.42 -2.03,-0.01 -23.9,-13.83 -47.82,-27.63 -71.74,-41.41 -0.7,-0.4 -0.95,-0.83 -0.95,-1.64 0.03,-8.64 0.03,-17.28 0,-25.91 0,-0.89 0.31,-1.32 1.05,-1.74 11.54,-6.63 23.06,-13.28 34.57,-19.95 0.62,-0.36 1.06,-0.49 1.74,-0.09 11.55,6.7 23.12,13.38 34.68,20.06 0.21,0.1 0.39,0.27 0.62,0.45 z"
   id="path1166" />
			<path
   class="st5"
   d="m 230.28,326.57 c -0.66,1.81 -1.35,3.61 -1.97,5.43 -0.22,0.63 -0.46,0.99 -1.23,1 -0.82,0.01 -0.99,-0.47 -1.19,-1.06 -0.54,-1.62 -1.11,-3.23 -1.98,-4.79 -0.14,1.65 -0.37,3.31 -0.37,4.96 0,1.16 -0.67,0.93 -1.35,1 -1.01,0.1 -0.86,-0.57 -0.82,-1.16 0.21,-3.2 0.44,-6.39 0.63,-9.59 0.04,-0.6 0.19,-1.01 0.86,-0.91 0.7,0.1 1.61,-0.45 2,0.7 0.74,2.22 1.54,4.41 2.37,6.75 0.82,-2.25 1.67,-4.33 2.33,-6.46 0.43,-1.38 1.43,-0.98 2.29,-0.97 0.99,0.01 0.62,0.85 0.66,1.37 0.22,3 0.42,5.99 0.6,8.99 0.03,0.58 0.31,1.35 -0.84,1.3 -0.83,-0.04 -1.42,-0.02 -1.42,-1.15 0,-1.79 -0.18,-3.57 -0.29,-5.36 -0.1,-0.02 -0.19,-0.03 -0.28,-0.05 z"
   id="path1168" />
			<path
   class="st6"
   d="m 246.93,325.91 c 0.87,-3.83 4.62,-5.17 8.16,-4.29 0.7,0.18 1.32,0.26 0.97,1.33 -0.31,0.94 -0.63,0.89 -1.46,0.65 -1.58,-0.45 -3.26,-0.43 -4.47,0.89 -1.13,1.24 -1.29,2.78 -0.75,4.37 0.57,1.7 2.47,2.7 4.21,2.29 1.21,-0.28 0.51,-1.21 0.65,-1.83 0.18,-0.76 -0.37,-0.78 -0.91,-0.74 -0.76,0.06 -1.3,0.05 -1.3,-1.04 0,-1.17 0.68,-0.97 1.37,-0.97 3.18,-0.02 3.18,-0.03 3.18,3.22 0,3.09 -0.26,3.34 -3.46,3.4 -3.65,0.07 -5.44,-1.24 -6.2,-4.54 -0.11,-0.92 -0.21,-1.83 0.01,-2.74 z"
   id="path1170" />
			<path
   class="st6"
   d="m 269.05,329.44 c 0,0.75 -0.06,1.51 0.01,2.25 0.13,1.45 -0.06,1.68 -1.54,1.39 -0.54,-0.1 -0.97,-0.18 -1.54,-0.01 -1.81,0.53 -3.24,-0.25 -3.7,-1.82 -0.45,-1.53 0.37,-2.91 2.14,-3.54 0.42,-0.15 0.87,-0.21 1.3,-0.3 0.36,-0.08 0.92,0.08 0.85,-0.54 -0.05,-0.47 -0.54,-0.53 -0.93,-0.61 -0.52,-0.11 -1,0.1 -1.45,0.29 -0.57,0.25 -0.94,0.62 -1.3,-0.35 -0.32,-0.88 0,-1.16 0.66,-1.46 3.05,-1.37 5.45,0.16 5.45,3.49 0,0.4 0,0.8 0,1.2 0.02,0.01 0.03,0.01 0.05,0.01 z"
   id="path1172" />
			<path
   class="st6"
   d="m 240.79,329.83 c 0,0.65 -0.15,1.35 0.03,1.95 0.46,1.54 -0.51,1.44 -1.42,1.31 -0.62,-0.09 -1.17,-0.18 -1.83,0.01 -1.64,0.46 -3.15,-0.33 -3.56,-1.65 -0.5,-1.65 0.31,-3.12 2.1,-3.73 0.42,-0.14 0.87,-0.2 1.31,-0.3 0.35,-0.08 0.92,0.12 0.85,-0.51 -0.05,-0.46 -0.53,-0.62 -0.91,-0.62 -0.49,0.01 -1.01,0.09 -1.46,0.28 -0.55,0.23 -0.96,0.62 -1.29,-0.31 -0.27,-0.76 -0.18,-1.15 0.58,-1.49 3,-1.32 5.32,0.03 5.56,3.27 0.04,0.6 0.01,1.2 0.01,1.8 0,-0.01 0.01,-0.01 0.03,-0.01 z"
   id="path1174" />
			<path
   class="st7"
   d="m 270.53,329.72 c 0,-0.7 0.02,-1.4 -0.01,-2.1 -0.02,-0.49 0.16,-0.93 -0.65,-1.24 -0.6,-0.23 -0.64,-1.54 0.02,-1.81 0.71,-0.3 0.71,-0.74 0.83,-1.21 0.48,-1.82 1.51,-2.67 3.31,-2.56 0.54,0.03 1.44,-0.24 1.37,0.82 -0.05,0.76 0.01,1.66 -1.32,1.19 -0.68,-0.24 -1.08,0.38 -1.16,1.05 -0.11,0.91 0.62,0.61 1.02,0.59 0.89,-0.05 0.77,0.52 0.8,1.07 0.04,0.66 -0.11,1.1 -0.89,0.96 -0.82,-0.14 -0.99,0.26 -0.97,1.01 0.05,1.55 -0.05,3.11 0.04,4.66 0.06,1.01 -0.48,0.98 -1.19,0.98 -0.72,0 -1.3,0 -1.21,-1 0.07,-0.8 0.01,-1.61 0.01,-2.41 z"
   id="path1176" />
			<path
   class="st6"
   d="m 246.67,326.49 c -2.38,-0.02 -1.92,-0.25 -1.97,1.97 -0.01,0.6 0,1.2 0,1.8 0,0.59 0.29,1.1 0.88,0.9 0.98,-0.32 0.95,0.28 1.04,0.88 0.11,0.81 -0.31,1.04 -1.03,1.12 -2.07,0.23 -3.1,-0.66 -3.13,-2.77 -0.01,-0.85 0.03,-1.7 -0.01,-2.55 -0.03,-0.6 0.37,-1.43 -0.88,-1.43 -0.56,0 -0.26,-0.74 -0.31,-1.15 -0.05,-0.4 -0.06,-0.86 0.57,-0.8 0.58,0.06 0.69,-0.27 0.62,-0.73 -0.21,-1.45 1,-1.23 1.76,-1.41 0.64,-0.15 0.49,0.49 0.47,0.83 -0.05,0.86 0.03,1.48 1.17,1.32 1.29,-0.18 0.64,0.91 0.87,1.43 0.13,0.21 0.13,0.41 -0.05,0.59 z"
   id="path1178" />
			<path
   class="st8"
   d="m 257.57,328.72 c 0,-1 0.09,-2.01 -0.02,-3 -0.13,-1.09 0.29,-1.57 1.28,-1.24 0.92,0.3 1.72,0.03 2.57,-0.1 0.64,-0.1 1.16,0.05 0.93,0.83 -0.14,0.48 0.7,1.48 -0.76,1.38 -1.21,-0.09 -1.58,0.87 -1.61,1.91 -0.04,1.15 -0.07,2.3 0.01,3.45 0.06,0.9 -0.19,1.2 -1.15,1.19 -0.99,0 -1.33,-0.28 -1.26,-1.27 0.07,-1.04 0.01,-2.1 0.01,-3.15 z"
   id="path1180" />
			<path
   class="st9"
   d="m 246.67,326.49 c 0.02,-0.2 0.03,-0.39 0.05,-0.59 0.07,0.02 0.14,0.02 0.22,0 -0.01,0.91 -0.01,1.82 -0.02,2.74 -0.53,-0.66 -0.22,-1.43 -0.25,-2.15 z"
   id="path1182" />
			<path
   class="st10"
   d="m 266.53,329.15 c 0.09,-0.02 0.36,0.12 0.32,0.67 -0.07,0.86 -0.57,1.36 -1.38,1.48 -0.54,0.08 -1.02,-0.19 -1,-0.81 0.03,-1.06 0.86,-1.17 2.06,-1.34 z"
   id="path1184" />
			<path
   class="st11"
   d="m 238.57,329.51 c -0.07,1.12 -0.57,1.62 -1.36,1.78 -0.55,0.11 -1.03,-0.21 -1.04,-0.78 -0.01,-1.07 0.85,-1.17 1.64,-1.29 0.44,-0.07 0.8,-0.06 0.76,0.29 z"
   id="path1186" />
		</g>
	</g>
</g>
</svg>
